<svg xmlns="http://www.w3.org/2000/svg" viewBox="0 0 200 200" width="160" height="160">
  <defs>
    <linearGradient id="calGrad" x1="0%" y1="0%" x2="100%" y2="100%">
      <stop offset="0%" stop-color="#2ECC71"/>
      <stop offset="100%" stop-color="#1ABC9C"/>
    </linearGradient>
  </defs>

  <rect x="25" y="35" width="150" height="145" rx="24" fill="url(#calGrad)"/>

  <circle cx="55" cy="28" r="5" fill="#334155"/>
  <circle cx="85" cy="28" r="5" fill="#334155"/>
  <circle cx="115" cy="28" r="5" fill="#334155"/>
  <circle cx="145" cy="28" r="5" fill="#334155"/>

  <rect x="52" y="20" width="6" height="12" rx="3" fill="#94A3B8"/>
  <rect x="82" y="20" width="6" height="12" rx="3" fill="#94A3B8"/>
  <rect x="112" y="20" width="6" height="12" rx="3" fill="#94A3B8"/>
  <rect x="142" y="20" width="6" height="12" rx="3" fill="#94A3B8"/>

  <path d="M 100 55
           V 100
           C 85 100 85 120 100 120
           V 165
           M 40 110
           H 90
           C 90 95 110 95 110 110
           H 160"
        fill="none"
        stroke="#ffffff"
        stroke-width="6"
        stroke-linecap="round"
        stroke-linejoin="round"/>

  <path d="M 128 78 L 136 86 L 150 70"
        fill="none"
        stroke="#ffffff"
        stroke-width="5"
        stroke-linecap="round"
        stroke-linejoin="round"/>
</svg>
